# xmcd CD database file
#
# Track frame offsets:
#	150
#	13227
#	27902
#	39340
#	51587
#	67132
#	80657
#	92472
#	105817
#	119930
#	132007
#	153605
#
# Disc length: 2238 seconds
#
# Revision: 0
# Processed by: cddbd v1.5PL3 Copyright (c) Steve Scherf et al.
# Submitted via: CDex 1.50beta8
#
DISCID=a108bc0c
DTITLE=和田アキ子 - ブルージーンと皮ジャンパー
DYEAR=1900
DGENRE=Pop
TTITLE0=ブルージーンと皮ジャンパー
TTITLE1=明日に架ける橋
TTITLE2=雨に濡れても
TTITLE3=忘れないわ
TTITLE4=雪が降る
TTITLE5=スウィート・キャロライン
TTITLE6=ある愛の詩
TTITLE7=ラヴ・ミー・トゥナイト
TTITLE8=別離
TTITLE9=この胸のときめきを
TTITLE10=朝日のあたる家
TTITLE11=ラスト・ワルツ
EXTD=
EXTT0=
EXTT1=
EXTT2=
EXTT3=
EXTT4=
EXTT5=
EXTT6=
EXTT7=
EXTT8=
EXTT9=
EXTT10=
EXTT11=
PLAYORDER=
